# xmcd
#
# Track frame offsets: 
#        150
#        11773
#        21752
#        32467
#        43939
#        54584
#        66408
#        78078
#        89379
#        99219
#        109174
#        119905
#        131181
#        142304
#        153681
#        165091
#
# Disc length: 2329 seconds
#
# Revision: 0
# Processed by: cddbd v1.5.2PL0 Copyright (c) Steve Scherf et al.
# Submitted via: ExactAudioCopy v1.3
#
DISCID=db091710
DTITLE=Huey Piano Smith - Top Hits
DYEAR=2020
DGENRE=Blues
TTITLE0=Don't You Just Know It
TTITLE1=Just a Lonely Clown
TTITLE2=Don't You Know Yockomo
TTITLE3=We Like Birdland
TTITLE4=Would You Believe It
TTITLE5=Scald Dog
TTITLE6=Havin' a Good Time
TTITLE7=Well I'll Be John Brown
TTITLE8=Little Liza Jane
TTITLE9=Rocking Pneumonia and Boogie Woogie1
TTITLE10=Rocking Pneumonia and Boogie Woogie2
TTITLE11=Tuberculas and Sinus Blues
TTITLE12=I Think You Jivin' Me
TTITLE13=Genevieve
TTITLE14=For Cryin' out Loud
TTITLE15=Popeye
EXTD=
EXTT0=
EXTT1=
EXTT2=
EXTT3=
EXTT4=
EXTT5=
EXTT6=
EXTT7=
EXTT8=
EXTT9=
EXTT10=
EXTT11=
EXTT12=
EXTT13=
EXTT14=
EXTT15=
PLAYORDER=
